<svg id="visual" viewBox="0 0 900 600" width="900" height="600" xmlns="http://www.w3.org/2000/svg" xmlns:xlink="http://www.w3.org/1999/xlink" version="1.1"><rect x="0" y="0" width="900" height="600" fill="#f1f1f1"></rect><defs><linearGradient id="grad1_0" x1="33.3%" y1="100%" x2="100%" y2="0%"><stop offset="20%" stop-color="#f1f1f1" stop-opacity="1"></stop><stop offset="80%" stop-color="#f1f1f1" stop-opacity="1"></stop></linearGradient></defs><defs><linearGradient id="grad2_0" x1="0%" y1="100%" x2="66.7%" y2="0%"><stop offset="20%" stop-color="#f1f1f1" stop-opacity="1"></stop><stop offset="80%" stop-color="#f1f1f1" stop-opacity="1"></stop></linearGradient></defs><g transform="translate(900, 600)"><path d="M-135.2 0C-136.4 -15.7 -137.6 -31.4 -128.6 -41.8C-119.6 -52.2 -100.4 -57.3 -89 -64.7C-77.6 -72 -73.9 -81.7 -67.6 -93C-61.3 -104.3 -52.2 -117.3 -40.5 -124.6C-28.8 -131.9 -14.4 -133.5 0 -135.2L0 0Z" fill="#c5e3fb"></path></g><g transform="translate(0, 0)"><path d="M135.2 0C131.2 13.3 127.3 26.6 123.6 40.2C120 53.7 116.7 67.6 109.4 79.5C102 91.3 90.6 101.2 78.2 107.6C65.8 114 52.4 116.8 39.2 120.8C26.1 124.8 13 130 0 135.2L0 0Z" fill="#c5e3fb"></path></g></svg>