<svg id="visual" viewBox="0 0 900 600" width="900" height="600" xmlns="http://www.w3.org/2000/svg" xmlns:xlink="http://www.w3.org/1999/xlink" version="1.1"><rect x="0" y="0" width="900" height="600" fill="#082032"></rect><g transform="translate(469.5424467075352 309.1039732272187)"><path d="M97.5 -133.6C146.7 -74.8 221.1 -63.5 264.7 -16.9C308.4 29.6 321.3 111.3 281.3 145.2C241.2 179.1 148.1 165.2 70.8 192.4C-6.5 219.6 -68.1 287.9 -110 281.6C-151.9 275.3 -174.3 194.4 -226.5 122C-278.8 49.6 -361 -14.3 -341.5 -49C-322 -83.8 -200.9 -89.4 -127 -143.8C-53.1 -198.3 -26.6 -301.7 -1.2 -300.2C24.1 -298.7 48.2 -192.5 97.5 -133.6" fill="#888277"></path></g></svg>