<svg id="visual" viewBox="0 0 900 600" width="900" height="600" xmlns="http://www.w3.org/2000/svg" xmlns:xlink="http://www.w3.org/1999/xlink" version="1.1"><rect x="0" y="0" width="900" height="600" fill="#082032"></rect><g transform="translate(515.5821529231514 355.8943807061311)"><path d="M178.5 -251.6C206.2 -189.5 186.2 -109.4 190.9 -40C195.7 29.5 225.1 88.2 209.5 126.3C193.9 164.4 133.2 181.8 76.2 197.2C19.3 212.7 -34 226.2 -111 230.5C-188 234.7 -288.9 229.9 -326.7 180.7C-364.5 131.5 -339.3 38.1 -296.3 -25.6C-253.4 -89.3 -192.6 -123.2 -140.2 -180.9C-87.8 -238.7 -43.9 -320.3 15.7 -339.1C75.4 -357.9 150.8 -313.8 178.5 -251.6" fill="#c5e3fb"></path></g></svg>