<svg id="visual" viewBox="0 0 900 600" width="900" height="600" xmlns="http://www.w3.org/2000/svg" xmlns:xlink="http://www.w3.org/1999/xlink" version="1.1"><rect x="0" y="0" width="900" height="600" fill="#f3f4f5"></rect><path d="M0 131L15 122C30 113 60 95 90 94.2C120 93.3 150 109.7 180 116C210 122.3 240 118.7 270 109.5C300 100.3 330 85.7 360 84C390 82.3 420 93.7 450 92.5C480 91.3 510 77.7 540 73.3C570 69 600 74 630 83.5C660 93 690 107 720 113.7C750 120.3 780 119.7 810 109.3C840 99 870 79 885 69L900 59L900 0L885 0C870 0 840 0 810 0C780 0 750 0 720 0C690 0 660 0 630 0C600 0 570 0 540 0C510 0 480 0 450 0C420 0 390 0 360 0C330 0 300 0 270 0C240 0 210 0 180 0C150 0 120 0 90 0C60 0 30 0 15 0L0 0Z" fill="#001122" stroke-linecap="round" stroke-linejoin="miter"></path></svg>