<svg id="visual" viewBox="0 0 900 600" width="900" height="600" xmlns="http://www.w3.org/2000/svg" xmlns:xlink="http://www.w3.org/1999/xlink" version="1.1"><rect x="0" y="0" width="900" height="600" fill="#f8f8f8"></rect><path d="M0 43L11.5 58.2C23 73.3 46 103.7 69 103.8C92 104 115 74 138.2 58.7C161.3 43.3 184.7 42.7 207.8 41.7C231 40.7 254 39.3 277 43.3C300 47.3 323 56.7 346 61.3C369 66 392 66 415.2 73.3C438.3 80.7 461.7 95.3 484.8 102.7C508 110 531 110 554 109.3C577 108.7 600 107.3 623 102.3C646 97.3 669 88.7 692.2 80.5C715.3 72.3 738.7 64.7 761.8 67.8C785 71 808 85 831 83.7C854 82.3 877 65.7 888.5 57.3L900 49L900 0L888.5 0C877 0 854 0 831 0C808 0 785 0 761.8 0C738.7 0 715.3 0 692.2 0C669 0 646 0 623 0C600 0 577 0 554 0C531 0 508 0 484.8 0C461.7 0 438.3 0 415.2 0C392 0 369 0 346 0C323 0 300 0 277 0C254 0 231 0 207.8 0C184.7 0 161.3 0 138.2 0C115 0 92 0 69 0C46 0 23 0 11.5 0L0 0Z" fill="#000000" stroke-linecap="round" stroke-linejoin="miter"></path></svg>