<svg id="visual" viewBox="0 0 900 600" width="900" height="600" xmlns="http://www.w3.org/2000/svg" xmlns:xlink="http://www.w3.org/1999/xlink" version="1.1"><rect x="0" y="0" width="900" height="600" fill="#f2f2f2"></rect><path d="M0 95L21.5 91.5C43 88 86 81 128.8 80.3C171.7 79.7 214.3 85.3 257.2 87C300 88.7 343 86.3 385.8 81.7C428.7 77 471.3 70 514.2 65.8C557 61.7 600 60.3 642.8 63.7C685.7 67 728.3 75 771.2 79.7C814 84.3 857 85.7 878.5 86.3L900 87L900 0L878.5 0C857 0 814 0 771.2 0C728.3 0 685.7 0 642.8 0C600 0 557 0 514.2 0C471.3 0 428.7 0 385.8 0C343 0 300 0 257.2 0C214.3 0 171.7 0 128.8 0C86 0 43 0 21.5 0L0 0Z" fill="#5b5b5b"></path><path d="M0 52L21.5 54.3C43 56.7 86 61.3 128.8 64.2C171.7 67 214.3 68 257.2 67.3C300 66.7 343 64.3 385.8 61.7C428.7 59 471.3 56 514.2 54.7C557 53.3 600 53.7 642.8 56.2C685.7 58.7 728.3 63.3 771.2 65.3C814 67.3 857 66.7 878.5 66.3L900 66L900 0L878.5 0C857 0 814 0 771.2 0C728.3 0 685.7 0 642.8 0C600 0 557 0 514.2 0C471.3 0 428.7 0 385.8 0C343 0 300 0 257.2 0C214.3 0 171.7 0 128.8 0C86 0 43 0 21.5 0L0 0Z" fill="#444444"></path><path d="M0 59L21.5 58C43 57 86 55 128.8 55.3C171.7 55.7 214.3 58.3 257.2 59.8C300 61.3 343 61.7 385.8 57.5C428.7 53.3 471.3 44.7 514.2 41.3C557 38 600 40 642.8 42.2C685.7 44.3 728.3 46.7 771.2 48.8C814 51 857 53 878.5 54L900 55L900 0L878.5 0C857 0 814 0 771.2 0C728.3 0 685.7 0 642.8 0C600 0 557 0 514.2 0C471.3 0 428.7 0 385.8 0C343 0 300 0 257.2 0C214.3 0 171.7 0 128.8 0C86 0 43 0 21.5 0L0 0Z" fill="#2f2f2f"></path><path d="M0 31L21.5 32.2C43 33.3 86 35.7 128.8 37.3C171.7 39 214.3 40 257.2 39C300 38 343 35 385.8 33.8C428.7 32.7 471.3 33.3 514.2 33.8C557 34.3 600 34.7 642.8 35.7C685.7 36.7 728.3 38.3 771.2 36.8C814 35.3 857 30.7 878.5 28.3L900 26L900 0L878.5 0C857 0 814 0 771.2 0C728.3 0 685.7 0 642.8 0C600 0 557 0 514.2 0C471.3 0 428.7 0 385.8 0C343 0 300 0 257.2 0C214.3 0 171.7 0 128.8 0C86 0 43 0 21.5 0L0 0Z" fill="#1b1b1b"></path><path d="M0 27L21.5 24.8C43 22.7 86 18.3 128.8 17C171.7 15.7 214.3 17.3 257.2 18.8C300 20.3 343 21.7 385.8 21.2C428.7 20.7 471.3 18.3 514.2 16.8C557 15.3 600 14.7 642.8 16.7C685.7 18.7 728.3 23.3 771.2 25.3C814 27.3 857 26.7 878.5 26.3L900 26L900 0L878.5 0C857 0 814 0 771.2 0C728.3 0 685.7 0 642.8 0C600 0 557 0 514.2 0C471.3 0 428.7 0 385.8 0C343 0 300 0 257.2 0C214.3 0 171.7 0 128.8 0C86 0 43 0 21.5 0L0 0Z" fill="#000000"></path></svg>