<svg id="visual" viewBox="0 0 900 600" width="900" height="600" xmlns="http://www.w3.org/2000/svg" xmlns:xlink="http://www.w3.org/1999/xlink" version="1.1"><rect x="0" y="0" width="900" height="600" fill="#fafafa"></rect><defs><linearGradient id="grad1_0" x1="33.3%" y1="100%" x2="100%" y2="0%"><stop offset="20%" stop-color="#fafafa" stop-opacity="1"></stop><stop offset="80%" stop-color="#fafafa" stop-opacity="1"></stop></linearGradient></defs><defs><linearGradient id="grad2_0" x1="0%" y1="100%" x2="66.7%" y2="0%"><stop offset="20%" stop-color="#fafafa" stop-opacity="1"></stop><stop offset="80%" stop-color="#fafafa" stop-opacity="1"></stop></linearGradient></defs><g transform="translate(900, 600)"><path d="M-216.3 0C-211.9 -27.8 -207.5 -55.6 -197.7 -81.9C-188 -108.2 -172.9 -133 -153 -153C-133 -172.9 -108.2 -188 -81.9 -197.7C-55.6 -207.5 -27.8 -211.9 0 -216.3L0 0Z" fill="#e4e4e4"></path></g><g transform="translate(0, 0)"><path d="M216.3 0C193.5 20 170.7 40 163.5 67.7C156.4 95.5 164.9 130.9 153 153C141 175.1 108.5 183.8 79.6 192.2C50.7 200.5 25.3 208.4 0 216.3L0 0Z" fill="#e4e4e4"></path></g></svg>