<svg id="visual" viewBox="0 0 900 600" width="900" height="600" xmlns="http://www.w3.org/2000/svg" xmlns:xlink="http://www.w3.org/1999/xlink" version="1.1"><rect x="0" y="0" width="900" height="600" fill="#000000"></rect><path d="M0 424L129 377L257 384L386 402L514 355L643 376L771 366L900 355L900 601L771 601L643 601L514 601L386 601L257 601L129 601L0 601Z" fill="#b0a49a"></path><path d="M0 458L129 423L257 477L386 397L514 434L643 464L771 461L900 407L900 601L771 601L643 601L514 601L386 601L257 601L129 601L0 601Z" fill="#c2b7b0"></path><path d="M0 459L129 506L257 500L386 445L514 438L643 444L771 499L900 448L900 601L771 601L643 601L514 601L386 601L257 601L129 601L0 601Z" fill="#d4cbc7"></path><path d="M0 522L129 515L257 525L386 485L514 532L643 481L771 506L900 511L900 601L771 601L643 601L514 601L386 601L257 601L129 601L0 601Z" fill="#e6e0dd"></path><path d="M0 565L129 551L257 561L386 542L514 531L643 540L771 574L900 555L900 601L771 601L643 601L514 601L386 601L257 601L129 601L0 601Z" fill="#f8f5f4"></path></svg>