<svg id="visual" viewBox="0 0 900 600" width="900" height="600" xmlns="http://www.w3.org/2000/svg" xmlns:xlink="http://www.w3.org/1999/xlink" version="1.1"><rect width="900" height="600" fill="#f0f3f6"></rect><g><g transform="translate(526 358)"><path d="M0 -185L130.8 -130.8L185 0L130.8 130.8L0 185L-130.8 130.8L-185 0L-130.8 -130.8Z" fill="#d2dce0"></path></g><g transform="translate(217 588)"><path d="M0 -153L108.2 -108.2L153 0L108.2 108.2L0 153L-108.2 108.2L-153 0L-108.2 -108.2Z" fill="#d2dce0"></path></g><g transform="translate(53 172)"><path d="M0 -178L125.9 -125.9L178 0L125.9 125.9L0 178L-125.9 125.9L-178 0L-125.9 -125.9Z" fill="#d2dce0"></path></g><g transform="translate(806 38)"><path d="M0 -118L83.4 -83.4L118 0L83.4 83.4L0 118L-83.4 83.4L-118 0L-83.4 -83.4Z" fill="#d2dce0"></path></g></g></svg>