<svg id="visual" viewBox="0 0 900 600" width="900" height="600" xmlns="http://www.w3.org/2000/svg" xmlns:xlink="http://www.w3.org/1999/xlink" version="1.1"><g stroke-width="1" stroke-linejoin="bevel"><path d="M485 313L408 326L511 417Z" fill="#e5e7e8" stroke="#e5e7e8"></path><path d="M408 326L367 435L511 417Z" fill="#dfe2e3" stroke="#dfe2e3"></path><path d="M367 435L490 486L511 417Z" fill="#e5e7e8" stroke="#e5e7e8"></path><path d="M408 326L333 372L367 435Z" fill="#c4cace" stroke="#c4cace"></path><path d="M601 477L586 419L511 417Z" fill="#dfe2e3" stroke="#dfe2e3"></path><path d="M511 417L586 419L485 313Z" fill="#cfd3d7" stroke="#cfd3d7"></path><path d="M281 533L361 489L367 435Z" fill="#dadddf" stroke="#dadddf"></path><path d="M367 435L361 489L490 486Z" fill="#d4d8db" stroke="#d4d8db"></path><path d="M408 326L325 291L333 372Z" fill="#f0f0f1" stroke="#f0f0f1"></path><path d="M365 235L325 291L408 326Z" fill="#f0f0f1" stroke="#f0f0f1"></path><path d="M485 313L365 235L408 326Z" fill="#dadddf" stroke="#dadddf"></path><path d="M490 486L601 477L511 417Z" fill="#dadddf" stroke="#dadddf"></path><path d="M365 235L337 226L325 291Z" fill="#e5e7e8" stroke="#e5e7e8"></path><path d="M639 270L485 313L586 419Z" fill="#dadddf" stroke="#dadddf"></path><path d="M639 270L583 224L485 313Z" fill="#e5e7e8" stroke="#e5e7e8"></path><path d="M485 313L466 178L365 235Z" fill="#eaebec" stroke="#eaebec"></path><path d="M365 235L426 107L337 226Z" fill="#dadddf" stroke="#dadddf"></path><path d="M583 224L466 178L485 313Z" fill="#d4d8db" stroke="#d4d8db"></path><path d="M666 295L639 270L586 419Z" fill="#f5f5f5" stroke="#f5f5f5"></path><path d="M692 413L666 295L586 419Z" fill="#f5f5f5" stroke="#f5f5f5"></path><path d="M333 372L281 533L367 435Z" fill="#eaebec" stroke="#eaebec"></path><path d="M363 600L535 600L490 486Z" fill="#cacfd2" stroke="#cacfd2"></path><path d="M490 486L535 600L601 477Z" fill="#bfc5ca" stroke="#bfc5ca"></path><path d="M177 420L281 533L333 372Z" fill="#f0f0f1" stroke="#f0f0f1"></path><path d="M363 600L490 486L361 489Z" fill="#dfe2e3" stroke="#dfe2e3"></path><path d="M673 538L692 413L601 477Z" fill="#f5f5f5" stroke="#f5f5f5"></path><path d="M601 477L692 413L586 419Z" fill="#eaebec" stroke="#eaebec"></path><path d="M329 600L363 600L361 489Z" fill="#f5f5f5" stroke="#f5f5f5"></path><path d="M281 533L329 600L361 489Z" fill="#cfd3d7" stroke="#cfd3d7"></path><path d="M535 600L593 600L601 477Z" fill="#d4d8db" stroke="#d4d8db"></path><path d="M677 192L583 224L639 270Z" fill="#f5f5f5" stroke="#f5f5f5"></path><path d="M677 192L576 138L583 224Z" fill="#cacfd2" stroke="#cacfd2"></path><path d="M583 224L576 138L466 178Z" fill="#bfc5ca" stroke="#bfc5ca"></path><path d="M515 78L426 107L466 178Z" fill="#dfe2e3" stroke="#dfe2e3"></path><path d="M466 178L426 107L365 235Z" fill="#cacfd2" stroke="#cacfd2"></path><path d="M593 600L673 538L601 477Z" fill="#dfe2e3" stroke="#dfe2e3"></path><path d="M165 300L333 372L325 291Z" fill="#c4cace" stroke="#c4cace"></path><path d="M165 300L177 420L333 372Z" fill="#c4cace" stroke="#c4cace"></path><path d="M281 533L193 600L329 600Z" fill="#c4cace" stroke="#c4cace"></path><path d="M197 229L325 291L337 226Z" fill="#e5e7e8" stroke="#e5e7e8"></path><path d="M666 295L677 192L639 270Z" fill="#eaebec" stroke="#eaebec"></path><path d="M794 328L677 192L666 295Z" fill="#c4cace" stroke="#c4cace"></path><path d="M177 420L192 500L281 533Z" fill="#f0f0f1" stroke="#f0f0f1"></path><path d="M292 113L197 229L337 226Z" fill="#dadddf" stroke="#dadddf"></path><path d="M197 229L165 300L325 291Z" fill="#bfc5ca" stroke="#bfc5ca"></path><path d="M576 138L515 78L466 178Z" fill="#e5e7e8" stroke="#e5e7e8"></path><path d="M614 0L515 78L576 138Z" fill="#f0f0f1" stroke="#f0f0f1"></path><path d="M307 0L292 113L426 107Z" fill="#cfd3d7" stroke="#cfd3d7"></path><path d="M426 107L292 113L337 226Z" fill="#d4d8db" stroke="#d4d8db"></path><path d="M799 469L777 383L692 413Z" fill="#d4d8db" stroke="#d4d8db"></path><path d="M692 413L777 383L666 295Z" fill="#c4cace" stroke="#c4cace"></path><path d="M768 92L679 128L677 192Z" fill="#cacfd2" stroke="#cacfd2"></path><path d="M677 192L679 128L576 138Z" fill="#cfd3d7" stroke="#cfd3d7"></path><path d="M106 362L138 486L177 420Z" fill="#d4d8db" stroke="#d4d8db"></path><path d="M177 420L138 486L192 500Z" fill="#eaebec" stroke="#eaebec"></path><path d="M192 500L193 600L281 533Z" fill="#f0f0f1" stroke="#f0f0f1"></path><path d="M777 383L794 328L666 295Z" fill="#d4d8db" stroke="#d4d8db"></path><path d="M593 600L717 600L673 538Z" fill="#eaebec" stroke="#eaebec"></path><path d="M673 538L799 469L692 413Z" fill="#cfd3d7" stroke="#cfd3d7"></path><path d="M777 383L900 379L794 328Z" fill="#f5f5f5" stroke="#f5f5f5"></path><path d="M138 486L193 600L192 500Z" fill="#c4cace" stroke="#c4cace"></path><path d="M71 270L106 362L165 300Z" fill="#bfc5ca" stroke="#bfc5ca"></path><path d="M165 300L106 362L177 420Z" fill="#eaebec" stroke="#eaebec"></path><path d="M717 600L799 469L673 538Z" fill="#f5f5f5" stroke="#f5f5f5"></path><path d="M239 0L202 126L292 113Z" fill="#dfe2e3" stroke="#dfe2e3"></path><path d="M292 113L202 126L197 229Z" fill="#e5e7e8" stroke="#e5e7e8"></path><path d="M197 229L110 228L165 300Z" fill="#bfc5ca" stroke="#bfc5ca"></path><path d="M202 126L110 228L197 229Z" fill="#c4cace" stroke="#c4cace"></path><path d="M503 0L421 0L515 78Z" fill="#c4cace" stroke="#c4cace"></path><path d="M515 78L421 0L426 107Z" fill="#cacfd2" stroke="#cacfd2"></path><path d="M614 0L503 0L515 78Z" fill="#cfd3d7" stroke="#cfd3d7"></path><path d="M0 265L71 270L0 218Z" fill="#eaebec" stroke="#eaebec"></path><path d="M110 228L71 270L165 300Z" fill="#cfd3d7" stroke="#cfd3d7"></path><path d="M0 513L69 600L138 486Z" fill="#f0f0f1" stroke="#f0f0f1"></path><path d="M421 0L307 0L426 107Z" fill="#d4d8db" stroke="#d4d8db"></path><path d="M202 126L87 133L110 228Z" fill="#eaebec" stroke="#eaebec"></path><path d="M663 0L614 0L679 128Z" fill="#eaebec" stroke="#eaebec"></path><path d="M679 128L614 0L576 138Z" fill="#f0f0f1" stroke="#f0f0f1"></path><path d="M900 263L834 203L794 328Z" fill="#cacfd2" stroke="#cacfd2"></path><path d="M794 328L834 203L677 192Z" fill="#cfd3d7" stroke="#cfd3d7"></path><path d="M834 203L768 92L677 192Z" fill="#eaebec" stroke="#eaebec"></path><path d="M768 92L663 0L679 128Z" fill="#d4d8db" stroke="#d4d8db"></path><path d="M717 600L826 600L799 469Z" fill="#f0f0f1" stroke="#f0f0f1"></path><path d="M799 469L900 379L777 383Z" fill="#dfe2e3" stroke="#dfe2e3"></path><path d="M307 0L239 0L292 113Z" fill="#d4d8db" stroke="#d4d8db"></path><path d="M138 0L87 133L202 126Z" fill="#bfc5ca" stroke="#bfc5ca"></path><path d="M900 489L900 379L799 469Z" fill="#dadddf" stroke="#dadddf"></path><path d="M0 380L138 486L106 362Z" fill="#bfc5ca" stroke="#bfc5ca"></path><path d="M138 486L69 600L193 600Z" fill="#eaebec" stroke="#eaebec"></path><path d="M71 270L0 380L106 362Z" fill="#cfd3d7" stroke="#cfd3d7"></path><path d="M0 265L0 380L71 270Z" fill="#e5e7e8" stroke="#e5e7e8"></path><path d="M900 379L900 263L794 328Z" fill="#cfd3d7" stroke="#cfd3d7"></path><path d="M834 203L900 137L768 92Z" fill="#eaebec" stroke="#eaebec"></path><path d="M826 600L900 489L799 469Z" fill="#d4d8db" stroke="#d4d8db"></path><path d="M0 218L71 270L110 228Z" fill="#dfe2e3" stroke="#dfe2e3"></path><path d="M0 380L0 513L138 486Z" fill="#f5f5f5" stroke="#f5f5f5"></path><path d="M87 133L0 218L110 228Z" fill="#eaebec" stroke="#eaebec"></path><path d="M900 263L900 186L834 203Z" fill="#d4d8db" stroke="#d4d8db"></path><path d="M768 92L772 0L663 0Z" fill="#c4cace" stroke="#c4cace"></path><path d="M900 0L772 0L768 92Z" fill="#d4d8db" stroke="#d4d8db"></path><path d="M239 0L138 0L202 126Z" fill="#dadddf" stroke="#dadddf"></path><path d="M87 133L0 63L0 218Z" fill="#cfd3d7" stroke="#cfd3d7"></path><path d="M826 600L900 600L900 489Z" fill="#f5f5f5" stroke="#f5f5f5"></path><path d="M900 186L900 137L834 203Z" fill="#cacfd2" stroke="#cacfd2"></path><path d="M0 513L0 600L69 600Z" fill="#bfc5ca" stroke="#bfc5ca"></path><path d="M138 0L0 63L87 133Z" fill="#dadddf" stroke="#dadddf"></path><path d="M900 137L900 0L768 92Z" fill="#eaebec" stroke="#eaebec"></path><path d="M138 0L0 0L0 63Z" fill="#dadddf" stroke="#dadddf"></path></g></svg>