<svg id="visual" viewBox="0 0 900 600" width="900" height="600" xmlns="http://www.w3.org/2000/svg" xmlns:xlink="http://www.w3.org/1999/xlink" version="1.1"><rect x="0" y="0" width="900" height="600" fill="#fefefe"></rect><defs><linearGradient id="grad1_0" x1="33.3%" y1="100%" x2="100%" y2="0%"><stop offset="20%" stop-color="#fefefe" stop-opacity="1"></stop><stop offset="80%" stop-color="#fefefe" stop-opacity="1"></stop></linearGradient></defs><defs><linearGradient id="grad2_0" x1="0%" y1="100%" x2="66.7%" y2="0%"><stop offset="20%" stop-color="#fefefe" stop-opacity="1"></stop><stop offset="80%" stop-color="#fefefe" stop-opacity="1"></stop></linearGradient></defs><g transform="translate(900, 600)"><path d="M-270.4 0C-267.4 -36.4 -264.4 -72.8 -249.8 -103.5C-235.2 -134.2 -209.1 -159.3 -183.1 -183.1C-157.2 -207 -131.5 -229.6 -101 -243.9C-70.5 -258.2 -35.3 -264.3 0 -270.4L0 0Z" fill="#000000"></path></g><g transform="translate(0, 0)"><path d="M270.4 0C242.9 24.8 215.4 49.6 206.9 85.7C198.5 121.8 209 169.2 191.2 191.2C173.4 213.3 127.3 210 90.7 219C54.1 227.9 27.1 249.2 0 270.4L0 0Z" fill="#000000"></path></g></svg>