<svg id="visual" viewBox="0 0 900 600" width="900" height="600" xmlns="http://www.w3.org/2000/svg" xmlns:xlink="http://www.w3.org/1999/xlink" version="1.1"><rect x="0" y="0" width="900" height="600" fill="#cbcbcb"></rect><defs><linearGradient id="grad1_0" x1="33.3%" y1="100%" x2="100%" y2="0%"><stop offset="20%" stop-color="#cbcbcb" stop-opacity="1"></stop><stop offset="80%" stop-color="#cbcbcb" stop-opacity="1"></stop></linearGradient></defs><defs><linearGradient id="grad2_0" x1="0%" y1="100%" x2="66.7%" y2="0%"><stop offset="20%" stop-color="#cbcbcb" stop-opacity="1"></stop><stop offset="80%" stop-color="#cbcbcb" stop-opacity="1"></stop></linearGradient></defs><g transform="translate(900, 600)"><path d="M-189.3 0C-186.5 -24.6 -183.7 -49.3 -174.9 -72.4C-166 -95.6 -151.1 -117.3 -132.2 -132.2C-113.3 -147.1 -90.4 -155.2 -67.7 -163.5C-45 -171.9 -22.5 -180.6 0 -189.3L0 0Z" fill="#a1a1a1"></path></g><g transform="translate(0, 0)"><path d="M189.3 0C175.6 22.5 161.9 44.9 147.8 61.2C133.7 77.5 119.1 87.7 108.2 108.2C97.2 128.7 89.9 159.6 72.4 174.9C55 190.1 27.5 189.7 0 189.3L0 0Z" fill="#a1a1a1"></path></g></svg>