
<svg id="visual" viewBox="0 0 900 600" width="900" height="600" xmlns="http://www.w3.org/2000/svg" xmlns:xlink="http://www.w3.org/1999/xlink" version="1.1"><rect x="0" y="0" width="900" height="600" fill="#001220"></rect><path d="M0 351L18.8 366.8C37.7 382.7 75.3 414.3 112.8 421.5C150.3 428.7 187.7 411.3 225.2 396.7C262.7 382 300.3 370 337.8 376.2C375.3 382.3 412.7 406.7 450.2 411.5C487.7 416.3 525.3 401.7 562.8 408C600.3 414.3 637.7 441.7 675.2 440.2C712.7 438.7 750.3 408.3 787.8 390.5C825.3 372.7 862.7 367.3 881.3 364.7L900 362L900 601L881.3 601C862.7 601 825.3 601 787.8 601C750.3 601 712.7 601 675.2 601C637.7 601 600.3 601 562.8 601C525.3 601 487.7 601 450.2 601C412.7 601 375.3 601 337.8 601C300.3 601 262.7 601 225.2 601C187.7 601 150.3 601 112.8 601C75.3 601 37.7 601 18.8 601L0 601Z" fill="#60a5fa"></path><path d="M0 457L18.8 465C37.7 473 75.3 489 112.8 496.7C150.3 504.3 187.7 503.7 225.2 494.3C262.7 485 300.3 467 337.8 463C375.3 459 412.7 469 450.2 473.7C487.7 478.3 525.3 477.7 562.8 470.7C600.3 463.7 637.7 450.3 675.2 443.5C712.7 436.7 750.3 436.3 787.8 447.7C825.3 459 862.7 482 881.3 493.5L900 505L900 601L881.3 601C862.7 601 825.3 601 787.8 601C750.3 601 712.7 601 675.2 601C637.7 601 600.3 601 562.8 601C525.3 601 487.7 601 450.2 601C412.7 601 375.3 601 337.8 601C300.3 601 262.7 601 225.2 601C187.7 601 150.3 601 112.8 601C75.3 601 37.7 601 18.8 601L0 601Z" fill="#3f89f2"></path><path d="M0 450L18.8 461.2C37.7 472.3 75.3 494.7 112.8 503.7C150.3 512.7 187.7 508.3 225.2 512.7C262.7 517 300.3 530 337.8 525C375.3 520 412.7 497 450.2 493.7C487.7 490.3 525.3 506.7 562.8 508.8C600.3 511 637.7 499 675.2 487.7C712.7 476.3 750.3 465.7 787.8 474.8C825.3 484 862.7 513 881.3 527.5L900 542L900 601L881.3 601C862.7 601 825.3 601 787.8 601C750.3 601 712.7 601 675.2 601C637.7 601 600.3 601 562.8 601C525.3 601 487.7 601 450.2 601C412.7 601 375.3 601 337.8 601C300.3 601 262.7 601 225.2 601C187.7 601 150.3 601 112.8 601C75.3 601 37.7 601 18.8 601L0 601Z" fill="#246de7"></path><path d="M0 524L18.8 521.2C37.7 518.3 75.3 512.7 112.8 513.5C150.3 514.3 187.7 521.7 225.2 528.2C262.7 534.7 300.3 540.3 337.8 546.2C375.3 552 412.7 558 450.2 557.2C487.7 556.3 525.3 548.7 562.8 542.8C600.3 537 637.7 533 675.2 527.8C712.7 522.7 750.3 516.3 787.8 515.3C825.3 514.3 862.7 518.7 881.3 520.8L900 523L900 601L881.3 601C862.7 601 825.3 601 787.8 601C750.3 601 712.7 601 675.2 601C637.7 601 600.3 601 562.8 601C525.3 601 487.7 601 450.2 601C412.7 601 375.3 601 337.8 601C300.3 601 262.7 601 225.2 601C187.7 601 150.3 601 112.8 601C75.3 601 37.7 601 18.8 601L0 601Z" fill="#1d4ed8"></path></svg>
